<?xml version="1.0" encoding="UTF-8"?> <svg xmlns="http://www.w3.org/2000/svg" id="Layer_1" data-name="Layer 1" viewBox="0 0 1080 314"><defs><style>.cls-1{fill:#334450;}.cls-2{fill:#02bbfe;}</style></defs><path class="cls-1" d="M447,92.3v36.8h34.7V289.6h39.6V107.4a15,15,0,0,0-15-15h0Z"></path><path class="cls-1" d="M786.3,107.4V289.7h39.6V129.1h48.5V92.3H801.3a15.07,15.07,0,0,0-15,15.1Z"></path><path class="cls-1" d="M336.3,89.9A101.5,101.5,0,1,0,437.8,191.4h0A101.57,101.57,0,0,0,336.3,89.9Zm0,163.8a62.3,62.3,0,1,1,62.3-62.3,62.31,62.31,0,0,1-62.3,62.3Z"></path><path class="cls-2" d="M1038.1,112q-17.85-19.35-53.7-19.4H899.6v36.5h97.2S900.4,206,892.9,214.3a40.75,40.75,0,0,0-11.2,28.4c0,16,5.1,27.8,15.3,35.5s24.3,11.5,42.4,11.5h68.9c26.3,0,45.7-22.3,45.7-49.7V163.9C1054,142.2,1050,124.9,1038.1,112Zm-20.2,127.9a16.75,16.75,0,0,1-16.4,17.1H937.8c-10.5,0-15.2-4-16.8-8.9a11.64,11.64,0,0,1,3.4-12.4c3.3-3.3,93.6-79.2,93.6-79.2v83.4Z"></path><path class="cls-1" d="M711.5,20.2V120.5c-14.7-18.7-38.8-30.6-62.3-30.6a101.55,101.55,0,0,0,0,203.1c23.5,0,48.5-13.2,62.3-29.6v26.3h39.6V20.2ZM649.1,253.7a62.3,62.3,0,1,1,62.3-62.3A62.31,62.31,0,0,1,649.1,253.7Z"></path><path class="cls-1" d="M144.6,152.2,233.7,20.1H188.5L119.4,122.7a25.13,25.13,0,0,1-20.8,11.1h-30V20.2H26V289.7H68.6V176H96.9a25,25,0,0,1,19.2,9l87.3,104.6h47.3Z"></path></svg> 